Coordinates
version=1
nRows=60
nColumns=12
inDegrees=yes

Units are S.I. units (second, meters, Newtons, ...)
Angles are in degrees

endheader
time	SC_y	SC_z	SC_x	AC_y	AC_z	AC_x	GH_y	GH_z	GH_yy	EL_x	PS_y
       0.0              -26.42          19.04          49.02           68.7          9.052           14.0          -3.92          64.71         -100.5          93.55          94.57
    0.0144              -26.41          19.04          49.01          68.69          9.049           14.0         -3.906           64.7         -100.5          93.55          94.56
    0.0288              -26.41          19.04          49.01          68.69          9.045           14.0         -3.891          64.69         -100.5          93.55          94.55
    0.0432              -26.41          19.04           49.0          68.68          9.041           14.0         -3.875          64.68         -100.4          93.55          94.53
    0.0576              -26.41          19.03          48.99          68.68          9.036           14.0         -3.858          64.67         -100.4          93.55          94.52
     0.072               -26.4          19.03          48.99          68.67          9.031          13.99          -3.84          64.66         -100.4          93.55          94.51
    0.0864               -26.4          19.03          48.98          68.67          9.026          13.99         -3.821          64.65         -100.3          93.55           94.5
    0.1008               -26.4          19.03          48.97          68.66          9.021          13.99         -3.801          64.63         -100.3          93.55          94.48
    0.1152              -26.39          19.03          48.96          68.65          9.015          13.99         -3.779          64.62         -100.3          93.55          94.47
    0.1296              -26.39          19.03          48.95          68.64          9.009          13.98         -3.756           64.6         -100.2          93.55          94.45
     0.144              -26.39          19.02          48.94          68.64          9.002          13.98          -3.73          64.58         -100.2          93.55          94.44
    0.1584              -26.38          19.02          48.93          68.63          8.995          13.98         -3.703          64.56         -100.1          93.55          94.42
    0.1728              -26.38          19.02          48.91          68.62          8.987          13.97         -3.674          64.54         -100.0          93.55           94.4
    0.1872              -26.37          19.02           48.9          68.61          8.979          13.97         -3.642          64.52         -99.98          93.55          94.37
    0.2016              -26.37          19.02          48.89           68.6           8.97          13.97         -3.608           64.5         -99.92          93.55          94.35
     0.216              -26.36          19.01          48.87          68.59           8.96          13.96         -3.571          64.47         -99.84          93.55          94.33
    0.2304              -26.36          19.01          48.85          68.57           8.95          13.96         -3.531          64.44         -99.76          93.55           94.3
    0.2448              -26.35          19.01          48.83          68.56          8.938          13.95         -3.487          64.41         -99.68          93.55          94.27
    0.2592              -26.34           19.0          48.81          68.54          8.925          13.95         -3.439          64.38         -99.58          93.56          94.23
    0.2736              -26.33           19.0          48.79          68.53          8.911          13.94         -3.386          64.34         -99.48          93.56           94.2
     0.288              -26.32          18.99          48.77          68.51          8.896          13.93         -3.329           64.3         -99.36          93.56          94.16
    0.3024              -26.31          18.99          48.74          68.49          8.879          13.93         -3.265          64.26         -99.24          93.56          94.11
    0.3168               -26.3          18.98          48.71          68.46          8.861          13.92         -3.195          64.21          -99.1          93.56          94.07
    0.3312              -26.29          18.98          48.67          68.44           8.84          13.91         -3.118          64.15         -98.95          93.56          94.01
    0.3456              -26.28          18.97          48.64          68.41          8.818           13.9         -3.031          64.09         -98.78          93.56          93.95
      0.36              -26.26          18.96           48.6          68.38          8.792          13.89         -2.935          64.03         -98.59          93.57          93.89
    0.3744              -26.24          18.96          48.55          68.35          8.764          13.88         -2.827          63.95         -98.37          93.57          93.81
    0.3888              -26.23          18.95           48.5          68.31          8.732          13.86         -2.706          63.87         -98.13          93.57          93.73
    0.4032               -26.2          18.94          48.44          68.26          8.695          13.85         -2.569          63.77         -97.86          93.57          93.63
    0.4176              -26.18          18.92          48.37          68.21          8.654          13.83         -2.413          63.66         -97.55          93.58          93.53
     0.432              -26.15          18.91          48.29          68.15          8.607          13.81         -2.235          63.54          -97.2          93.58          93.41
    0.4464              -26.12          18.89          48.21          68.09          8.553          13.78         -2.031          63.39          -96.8          93.59          93.26
    0.4608              -26.08          18.88           48.1          68.01          8.491          13.76         -1.796          63.23         -96.33          93.59           93.1
    0.4752              -26.04          18.86          47.99          67.92          8.419          13.73         -1.522          63.04         -95.79           93.6          92.91
    0.4896              -25.99          18.83          47.85          67.82          8.334          13.69         -1.202          62.81         -95.16           93.6          92.69
     0.504              -25.93           18.8          47.69           67.7          8.235          13.65         -0.825          62.55         -94.41          93.61          92.43
    0.5184              -25.86          18.77          47.49          67.55          8.116          13.59        -0.3765          62.24         -93.53          93.62          92.13
    0.5328              -25.77          18.73          47.26          67.38          7.974          13.53          0.161          61.86         -92.46          93.63          91.75
    0.5472              -25.67          18.68          46.98          67.17          7.802          13.46         0.8113          61.41         -91.18          93.64          91.31
    0.5616              -25.55          18.62          46.64          66.91          7.592          13.36          1.606          60.85         -89.61          93.66          90.76
     0.576              -25.39          18.54          46.22           66.6          7.333          13.25          2.586          60.17         -87.67          93.68          90.08
    0.5904               -25.2          18.45          45.69           66.2           7.01          13.11          3.809          59.31         -85.25          93.71          89.24
    0.6048              -24.95          18.33          45.03          65.71          6.603          12.93          5.349          58.23         -82.21          93.74          88.18
    0.6192              -24.65          18.18          44.18          65.07          6.086          12.71          7.307          56.87         -78.34          93.78          86.83
    0.6336              -24.25          17.99           43.1          64.27          5.423          12.42          9.813          55.11         -73.38          93.83          85.11
     0.648              -23.74          17.74          41.72          63.23          4.573          12.04          13.03          52.86         -67.02           93.9          82.89
    0.6624              -23.09          17.43          39.95           61.9          3.488          11.57          17.14          49.99          -58.9          93.99          80.06
    0.6768              -22.28          17.03          37.72          60.24          2.123          10.97           22.3          46.38         -48.69           94.1           76.5
    0.6912              -21.28          16.55          35.01           58.2         0.4595          10.24           28.6          41.98         -36.25          94.23          72.17
    0.7056              -20.13          15.99          31.86          55.85         -1.469            9.4          35.89          36.88         -21.82          94.38          67.14
      0.72              -18.89          15.39          28.46           53.3         -3.556          8.487          43.79          31.36         -6.203          94.55           61.7
    0.7344              -17.64          14.79          25.06          50.75         -5.644          7.573          51.69          25.83          9.416          94.71          56.26
    0.7488              -16.49          14.23          21.91          48.39         -7.572           6.73          58.99          20.73          23.84          94.87          51.24
    0.7632              -15.49          13.75           19.2          46.36         -9.236          6.002          65.28          16.33          36.28           95.0           46.9
    0.7776              -14.68          13.35          16.97           44.7          -10.6          5.405          70.45          12.72           46.5          95.11          43.34
     0.792              -14.03          13.04           15.2          43.37         -11.69           4.93          74.56          9.847          54.62          95.19          40.51
    0.8064              -13.52          12.79          13.82          42.33         -12.54          4.558          77.77          7.599          60.98          95.26           38.3
    0.8208              -13.13           12.6          12.74          41.52          -13.2          4.268          80.28          5.847          65.93          95.31          36.57
    0.8352              -12.82          12.45          11.89          40.89         -13.72          4.042          82.24          4.478           69.8          95.35          35.22
    0.8496              -12.58          12.33          11.23          40.39         -14.12          3.864          83.78          3.401          72.85          95.39          34.16
